# xmcd
#
# Track frame offsets:
#	150
#	15297
#	33523
#	49663
#	71018
#	89517
#	109291
#	126734
#	139707
#	158398
#	172297
#	189142
#
# Disc length: 2783 seconds
#
# Revision: 0
# Processed by: cddbd v1.5.1PL2 Copyright (c) Steve Scherf et al.
# Submitted via: audiograbber 1.83.01
#
DISCID=a10add0c
DTITLE=Mark Leland - Mark Leland
DYEAR=2005
DGENRE=Country
TTITLE0=Lovin' My World Away
TTITLE1=You've Lost That Lovin' Feelin'
TTITLE2=My Baby's Shakin'
TTITLE3=Everything I Do, Remembers You
TTITLE4=Red, White and Blue Americans
TTITLE5=Missing Pieces
TTITLE6=Somebody Love Me
TTITLE7=Shivers and Shakin'
TTITLE8=The Bridge that I Left Standing
TTITLE9=Hillbilly, Redneck Country Bar
TTITLE10=Baby, Turn down the Lights
TTITLE11=Inside
EXTD=
EXTT0=
EXTT1=
EXTT2=
EXTT3=
EXTT4=
EXTT5=Special tribute to those children suffering from Autism
EXTT6=
EXTT7=
EXTT8=
EXTT9=
EXTT10=
EXTT11=
PLAYORDER=
